#!OML:ASF H:\Male1\Project 1\Capture day 1\Session 1\Male1.ASF
:FULLY-SPECIFIED
:DEGREES
358
root 25.6798 15.3195 3.0827 -30.5129 82.8495 -30.419
lowerback 10.33 2.02056 0.726176
upperback 7.06218 3.04774 -1.89522
thorax 1.71232 1.72483 -2.62608
lowerneck -5.94727 9.42224 14.7136
upperneck 16.2562 13.3725 -11.4331
head 7.74155 6.5539 -4.8562
rclavicle -5.56597e-015 2.78299e-014
rhumerus -47.0765 1.90907 -84.6409
rradius 60.6278
rwrist -29.5641
rhand -23.769 4.10986
rfingers 7.12502
rthumb 2.70041 -25.8528
lclavicle -5.56597e-015 2.78299e-014
lhumerus -32.558 33.4375 64.7723
lradius 24.3375
lwrist -6.43802
lhand -20.09 11.1429
lfingers 7.12502
lthumb 6.25289 41.0306
rfemur -8.92979 22.5449 20.4506
rtibia 24.3257
rfoot -29.894 -31.9066
rtoes -21.3424
lfemur -10.8104 -17.9654 -14.947
ltibia 33.4565
lfoot -22.7103 19.3824
ltoes -13.7858
359
root 25.6748 15.3237 3.11418 -29.7561 82.7779 -29.705
lowerback 10.3089 2.08756 0.911624
upperback 6.92162 3.14075 -1.93189
thorax 1.59365 1.77262 -2.77869
lowerneck -5.90967 9.32766 14.802
upperneck 16.3162 13.2522 -11.4701
head 7.74609 6.50263 -4.90018
rclavicle -4.41302e-014 1.27222e-014
rhumerus -47.1392 1.64644 -84.4984
rradius 59.2969
rwrist -29.3454
rhand -23.7219 4.11442
rfingers 7.12502
rthumb 2.74595 -25.8476
lclavicle -4.41302e-014 1.27222e-014
lhumerus -31.5734 32.0705 66.3619
lradius 24.974
lwrist -6.92073
lhand -21.7977 10.2869
lfingers 7.12502
lthumb 4.6041 40.2168
rfemur -9.14822 22.3336 20.5047
rtibia 24.5689
rfoot -29.6028 -31.9607
rtoes -22.226
lfemur -10.5818 -18.2756 -14.8835
ltibia 33.0151
lfoot -22.6276 19.7365
ltoes -13.8087
360
root 25.6677 15.3271 3.14613 -29.4013 82.5796 -29.3978
lowerback 10.2361 2.18839 1.09256
upperback 6.81879 3.27978 -1.91576
thorax 1.54272 1.84315 -2.8741
lowerneck -5.79876 9.23801 14.8828
upperneck 16.1905 13.132 -11.539
head 7.67842 6.45016 -4.95667
rclavicle 5.56597e-015 -1.51076e-014
rhumerus -46.7386 1.78968 -84.3006
rradius 57.5393
rwrist -29.3812
rhand -23.8321 4.71097
rfingers 7.12502
rthumb 2.63956 -25.2524
lclavicle 5.56597e-015 -1.51076e-014
lhumerus -30.3956 30.9091 67.9883
lradius 25.4242
lwrist -7.5227
lhand -23.4143 9.83837
lfingers 7.12502
lthumb 3.04299 39.7964
rfemur -9.35186 22.3289 20.6893
rtibia 24.771
rfoot -29.4521 -31.9836
rtoes -22.5333
lfemur -10.3662 -18.4421 -14.6849
ltibia 32.6021
lfoot -22.5614 20.0368
ltoes -13.8289
361
root 25.66 15.333 3.17882 -28.2416 82.502 -28.3136
lowerback 10.1606 2.32182 1.12347
upperback 6.7191 3.45152 -1.93618
thorax 1.49276 1.92637 -2.92565
lowerneck -5.73575 9.11501 15.0028
upperneck 16.0661 12.9749 -11.7147
head 7.62415 6.37336 -5.05792
rclavicle 3.45885e-014 -2.70347e-014
rhumerus -46.7099 1.10241 -84.1512
rradius 55.9866
rwrist -28.4961
rhand -23.8276 5.36054
rfingers 7.12502
rthumb 2.6439 -24.6028
lclavicle 3.45885e-014 -2.70347e-014
lhumerus -29.1394 29.9425 69.608
lradius 25.9008
lwrist -8.03006
lhand -24.2703 9.85237
lfingers 7.12502
lthumb 2.21634 39.8206
rfemur -9.62429 22.2187 20.6782
rtibia 24.985
rfoot -29.1616 -31.7841
rtoes -22.6517
lfemur -10.2035 -18.5849 -14.6299
ltibia 32.1856
lfoot -22.5316 20.2515
ltoes -13.7177
362
root 25.6584 15.3385 3.20923 -25.6173 82.6921 -25.6594
lowerback 10.087 2.4104 0.852111
upperback 6.67 3.5453 -2.00487
thorax 1.4748 1.96458 -2.85014
lowerneck -5.92142 8.98891 14.7104
upperneck 16.2446 12.7618 -11.3681
head 7.64093 6.27367 -4.91528
rclavicle 5.4467e-014 -3.57812e-014
rhumerus -45.9726 1.26481 -83.8489
rradius 53.811
rwrist -28.2831
rhand -23.4954 4.73916
rfingers 7.12502
rthumb 2.96468 -25.22
lclavicle 5.4467e-014 -3.57812e-014
lhumerus -27.9989 29.1253 71.1701
lradius 26.5367
lwrist -8.0036
lhand -24.2361 9.8141
lfingers 7.12502
lthumb 2.24934 39.782
rfemur -9.77917 21.729 20.3433
rtibia 25.2306
rfoot -28.8075 -31.2556
rtoes -22.4793
lfemur -9.9252 -18.9232 -14.9856
ltibia 31.7577
lfoot -22.5445 20.4711
ltoes -13.246
363
root 25.6584 15.3426 3.23653 -21.1129 83.0683 -21.1025
lowerback 9.96082 2.43368 0.31927
upperback 6.65639 3.53713 -2.1489
thorax 1.50584 1.94708 -2.69427
lowerneck -6.25436 8.93223 14.4371
upperneck 16.2749 12.6473 -11.2523
head 7.66744 6.19856 -4.83399
rclavicle 1.27222e-014 0
rhumerus -45.7089 0.903678 -83.7044
rradius 52.1286
rwrist -27.4453
rhand -22.9952 3.90548
rfingers 7.12502
rthumb 3.44777 -26.0464
lclavicle 1.27222e-014 0
lhumerus -26.9556 28.0726 72.6904
lradius 27.3578
lwrist -7.10659
lhand -23.5912 9.56511
lfingers 7.12502
lthumb 2.87213 39.5255
rfemur -9.89786 21.235 19.6981
rtibia 25.4675
rfoot -28.5916 -30.9133
rtoes -22.5043
lfemur -9.6629 -19.3601 -15.6746
ltibia 31.3426
lfoot -22.4774 20.7597
ltoes -13.1058
364
root 25.6535 15.3465 3.2659 -20.5843 83.2582 -20.6596
lowerback 9.84313 2.40393 0.235428
upperback 6.54162 3.48192 -2.11364
thorax 1.43926 1.91095 -2.60373
lowerneck -6.60963 9.02225 14.0729
upperneck 16.6535 12.7722 -11.0172
head 7.83119 6.24196 -4.66669
rclavicle 2.26615e-014 -2.54444e-014
rhumerus -44.7929 1.34878 -83.3755
rradius 50.1008
rwrist -27.3082
rhand -22.2781 3.30879
rfingers 7.12502
rthumb 4.14021 -26.6307
lclavicle 2.26615e-014 -2.54444e-014
lhumerus -26.1809 26.5676 74.1629
lradius 28.4122
lwrist -5.45211
lhand -22.6309 9.32736
lfingers 7.12502
lthumb 3.79956 39.2732
rfemur -10.0973 21.1496 19.6568
rtibia 25.6459
rfoot -28.7228 -30.9699
rtoes -22.3956
lfemur -9.61135 -19.6618 -15.6608
ltibia 30.9862
lfoot -22.321 20.9479
ltoes -13.3191
